<svg xmlns="http://www.w3.org/2000/svg" xmlns:svg="http://www.w3.org/2000/svg" xmlns:xlink="http://www.w3.org/1999/xlink" id="svg4398" width="256" height="256" version="1.1"><defs id="defs4400"><linearGradient id="linearGradient1006"><stop style="stop-color:#000;stop-opacity:.15686275" id="stop1002" offset="0"/><stop style="stop-color:#000;stop-opacity:0" id="stop1004" offset="1"/></linearGradient><filter style="color-interpolation-filters:sRGB" id="filter1025"><feFlood id="feFlood1015" flood-color="#000" flood-opacity=".627" result="flood"/><feComposite id="feComposite1017" in="flood" in2="SourceGraphic" operator="in" result="composite1"/><feGaussianBlur id="feGaussianBlur1019" in="composite1" result="blur" stdDeviation="30"/><feOffset id="feOffset1021" dx="0" dy="0" result="offset"/><feComposite id="feComposite1023" in="SourceGraphic" in2="offset" operator="over" result="composite2"/></filter><filter style="color-interpolation-filters:sRGB" id="filter1025-5"><feFlood id="feFlood1015-3" flood-color="#000" flood-opacity=".627" result="flood"/><feComposite id="feComposite1017-5" in="flood" in2="SourceGraphic" operator="in" result="composite1"/><feGaussianBlur id="feGaussianBlur1019-6" in="composite1" result="blur" stdDeviation="30"/><feOffset id="feOffset1021-2" dx="0" dy="0" result="offset"/><feComposite id="feComposite1023-9" in="SourceGraphic" in2="offset" operator="over" result="composite2"/></filter><filter style="color-interpolation-filters:sRGB" id="filter2540"><feFlood id="feFlood2530" flood-color="#000" flood-opacity=".549" result="flood"/><feComposite id="feComposite2532" in="flood" in2="SourceGraphic" operator="in" result="composite1"/><feGaussianBlur id="feGaussianBlur2534" in="composite1" result="blur" stdDeviation="20"/><feOffset id="feOffset2536" dx="0" dy="0" result="offset"/><feComposite id="feComposite2538" in="SourceGraphic" in2="offset" operator="over" result="composite2"/></filter><filter style="color-interpolation-filters:sRGB" id="filter1585"><feFlood id="feFlood1575" flood-color="#000" flood-opacity=".498" result="flood"/><feComposite id="feComposite1577" in="flood" in2="SourceGraphic" operator="in" result="composite1"/><feGaussianBlur id="feGaussianBlur1579" in="composite1" result="blur" stdDeviation="10"/><feOffset id="feOffset1581" dx="0" dy="0" result="offset"/><feComposite id="feComposite1583" in="SourceGraphic" in2="offset" operator="over" result="composite2"/></filter><linearGradient id="linearGradient1008" x1="526.192" x2="736.499" y1="541.475" y2="751.408" gradientTransform="matrix(0.25647488,0,0,0.2539205,-3.3151325,794.35488)" gradientUnits="userSpaceOnUse" xlink:href="#linearGradient1006"/></defs><metadata id="metadata4403"/><g id="layer1" transform="translate(0,-796.36218)"><path style="fill:url(#linearGradient1008);fill-opacity:1;stroke:none;stroke-width:.82718384;stroke-miterlimit:4;stroke-dasharray:none;stroke-opacity:1" id="rect974" d="m 184.18954,869.26837 -17.07712,16.90655 81.34011,80.5295 a 128.00001,128 0 0 0 6.36027,-27.51567 z m -28.16815,27.88712 -60.14386,59.54485 85.00389,84.15726 a 128.00001,128 0 0 0 60.93082,-58.7657 z m -71.234895,70.52593 -17.297528,17.12475 68.229323,67.54983 a 128.00001,128 0 0 0 29.12493,-5.4152 z"/><path style="display:inline;fill:#fff;fill-opacity:1;stroke:none;stroke-width:3.53947401" id="rect3027-2-23-7" d="m 170.53226,863.92007 c -3.97511,-0.0595 -7.70731,1.17093 -10.78768,3.36384 l -4.25317,4.23385 c -0.0485,0.0687 -0.12495,0.10548 -0.17379,0.17414 l -0.52204,0.56065 c -0.0531,0.0354 -0.12211,0.08 -0.17379,0.1161 l -0.73476,0.73465 25.75095,25.53831 5.89659,-5.8771 c 1.56519,-2.39024 2.60353,-5.18646 2.9385,-8.23568 1.12357,-10.22696 -6.14491,-19.40499 -16.22006,-20.51181 -0.5757,-0.063 -1.15262,-0.0878 -1.72049,-0.0966 z m -27.49088,20.12516 -10.5556,10.43961 -49.201335,49.06599 25.750805,25.86693 59.79573,-59.77622 z m -71.105125,70.54448 -4.523908,30.13944 0.07681,0.0772 30.236098,-4.27246 0.03893,-0.0386 -25.82839,-25.90563 z"/></g></svg>