<svg xmlns="http://www.w3.org/2000/svg" xmlns:svg="http://www.w3.org/2000/svg" id="svg4398" width="256" height="256" version="1.1"><metadata id="metadata4403"/><g id="layer1" transform="translate(0,-796.36218)"><path style="display:inline;fill:#fff;fill-opacity:1;stroke:none;stroke-width:7.47764158" id="rect3027-2-23" d="m 217.85549,796.66969 c -8.39801,-0.12562 -16.28282,2.47376 -22.79055,7.10661 l -8.98543,8.9446 c -0.10241,0.14507 -0.26392,0.22283 -0.36713,0.3679 l -1.1029,1.18446 c -0.11213,0.0748 -0.25795,0.16899 -0.36713,0.24527 l -1.55231,1.55206 54.40254,53.95327 12.4574,-12.41617 c 3.30666,-5.04973 5.50032,-10.95714 6.208,-17.39905 2.37371,-21.6059 -12.98202,-40.9958 -34.26716,-43.33413 -1.21625,-0.1331 -2.43513,-0.18545 -3.63485,-0.20414 z m -58.07843,42.51728 -22.3002,22.05515 L 33.532072,964.901 87.934292,1019.5486 214.26126,893.2628 Z M 9.557382,988.2222 1.7666326e-6,1051.896 0.16225177,1052.059 l 63.87806023,-9.0262 0.0822,-0.082 -54.56611,-54.72924 z"/></g></svg>